<svg width="640" height="640" viewBox="0 0 640 640" fill="none" xmlns="http://www.w3.org/2000/svg">
<path d="M0 320C0 404.869 33.7142 486.263 93.7258 546.274C153.737 606.286 235.131 640 320 640C404.869 640 486.263 606.286 546.274 546.274C606.286 486.263 640 404.869 640 320C640 235.131 606.286 153.737 546.274 93.7258C486.263 33.7142 404.869 0 320 0C235.131 0 153.737 33.7142 93.7258 93.7258C33.7142 153.737 0 235.131 0 320Z" fill="#F0B90B"/>
<path d="M234.082 284.49L184.49 235.612L317.857 104.49L450.408 234.796L402.959 283.673L318.571 200L234.082 284.49ZM234.082 357.755L184.49 406.633L317.857 537.755L450.408 407.347L402.959 358.469L318.571 442.245L234.082 357.755ZM101.13 319.85L148.679 272.301L196.228 319.85L148.679 367.399L101.13 319.85ZM440.52 319.863L488.068 272.315L535.617 319.863L488.068 367.412L440.52 319.863Z" fill="white"/>
<path d="M271.122 319.837L318.671 272.288L366.22 319.837L318.671 367.386L271.122 319.837Z" fill="white"/>
</svg>
